<?xml version="1.0" encoding="UTF-8" standalone="no"?>
<svg
   viewBox="0 0 381.52 92.05"
   version="1.1"
   id="svg31"
   sodipodi:docname="24d584c5-fe11-4621-ad19-c372e2777233.svg"
   xmlns:inkscape="http://www.inkscape.org/namespaces/inkscape"
   xmlns:sodipodi="http://sodipodi.sourceforge.net/DTD/sodipodi-0.dtd"
   xmlns="http://www.w3.org/2000/svg"
   xmlns:svg="http://www.w3.org/2000/svg">
  <sodipodi:namedview
     id="namedview31"
     pagecolor="#ffffff"
     bordercolor="#000000"
     borderopacity="0.25"
     inkscape:showpageshadow="2"
     inkscape:pageopacity="0.0"
     inkscape:pagecheckerboard="0"
     inkscape:deskcolor="#d1d1d1" />
  <defs
     id="defs1">
    <style
       id="style1">.cls-1{fill:#ffb600;}.cls-2{fill:#fff;}</style>
  </defs>
  <g
     id="Rays">
    <path
       class="cls-1"
       d="M44,62.54l-1.13-.12a11.47,11.47,0,0,1-.68,1.17l.69.91A17.43,17.43,0,0,1,44,66.18a17,17,0,0,1,1.12,2.31l.06-.07a19.48,19.48,0,0,1,3.33-5.79l.07-.18A17.5,17.5,0,0,1,44,62.54Z"
       transform="translate(-25.24 -36.96)"
       id="path1" />
    <path
       class="cls-1"
       d="M62.72,99.07l.68,0c.23,0,.45,0,.67,0l.46-1a17.75,17.75,0,0,1,2.18-3.68,20.08,20.08,0,0,1-3.22.28,19.45,19.45,0,0,1-3.43-.32A18,18,0,0,1,62.27,98Z"
       transform="translate(-25.24 -36.96)"
       id="path2" />
    <path
       class="cls-1"
       d="M84.57,63.56a11.37,11.37,0,0,1-.67-1.17l-1.13.13a19.34,19.34,0,0,1-2,.11,17.56,17.56,0,0,1-2.48-.18,19.41,19.41,0,0,1,3.46,5.88,17.37,17.37,0,0,1,2.16-3.86Z"
       transform="translate(-25.24 -36.96)"
       id="path3" />
    <path
       class="cls-1"
       d="M66.78,55.93a13.93,13.93,0,0,0,1.41-.37,15.81,15.81,0,0,0,4.73-2.42l5.36-4,0,0-.48,4.21a9.13,9.13,0,0,0,2.92.49,8.72,8.72,0,0,0,1-.06l1.39-.16.94-8.25a2.53,2.53,0,0,0,0-.28,1.8,1.8,0,0,0,0-.22,3.37,3.37,0,0,0-5.29-2.77,1.86,1.86,0,0,0-.19.11l-8.89,6.57a10.58,10.58,0,0,1-4.89,2A10.14,10.14,0,0,1,63.4,51a10.39,10.39,0,0,1-1.47-.11,10.63,10.63,0,0,1-4.89-2s-9-6.66-9.13-6.7a3.29,3.29,0,0,0-5.24,2.65c0,.09,1,8.89,1,8.89l1.39.16a8.6,8.6,0,0,0,1,.06A9.13,9.13,0,0,0,49,53.43l-.48-4.21.05,0,5.34,4a16.05,16.05,0,0,0,4.73,2.42c.5.16,1,.28,1.5.39a18.91,18.91,0,0,1,3.39-.32A19.83,19.83,0,0,1,66.78,55.93Z"
       transform="translate(-25.24 -36.96)"
       id="path4" />
    <path
       class="cls-1"
       d="M44.31,71.69A15.19,15.19,0,0,0,44,70.21a15.9,15.9,0,0,0-2.41-4.73l-4-5.35,0-.05,6.61.76c.6.06,1.21.1,1.82.1a16.41,16.41,0,0,0,3.48-.38,16,16,0,0,0,1.54-.45,19.2,19.2,0,0,1,5.63-3.23l.17-.15a17.19,17.19,0,0,1-4-2.23L52,53.83a10.39,10.39,0,0,1-1.89,1,10.62,10.62,0,0,1-4,.78,10,10,0,0,1-1.22-.07S33.55,54.23,33.3,54.23a3.36,3.36,0,0,0-2.7,5.39l6.66,9a10.76,10.76,0,0,1,2,4.89,10.13,10.13,0,0,1,.07,2.14l1.05.45a17.92,17.92,0,0,1,3.92,2.36,18.51,18.51,0,0,1,0-6.8Z"
       transform="translate(-25.24 -36.96)"
       id="path5" />
    <path
       class="cls-1"
       d="M61.68,49.1l1.69-3.89h.06l1.69,3.89a9.13,9.13,0,0,0,3.63-1.6l1.12-.83-3.31-7.62c0-.07-.08-.12-.11-.18A3.4,3.4,0,0,0,60.3,39s0,.06-.06.1l-3.31,7.62,1.12.83A9.13,9.13,0,0,0,61.68,49.1Z"
       transform="translate(-25.24 -36.96)"
       id="path6" />
    <path
       class="cls-1"
       d="M69,94.24a16.26,16.26,0,0,0-2.89,4.46l-2.65,6.09h-.06L60.72,98.7a16.07,16.07,0,0,0-2.9-4.46c-.23-.25-.5-.48-.75-.72A19.26,19.26,0,0,1,50.86,90a18.07,18.07,0,0,1,0,4.41l-.13,1.14a10.88,10.88,0,0,1,1.82,1.13,10.71,10.71,0,0,1,3.23,4.18L60.24,111h0a3.39,3.39,0,0,0,6.31,0h0L71,100.82a10.73,10.73,0,0,1,3.24-4.18A10.4,10.4,0,0,1,76,95.51l-.13-1.14a17.61,17.61,0,0,1,.05-4.23,19.53,19.53,0,0,1-6.32,3.49C69.4,93.84,69.17,94,69,94.24Z"
       transform="translate(-25.24 -36.96)"
       id="path7" />
    <path
       class="cls-1"
       d="M37.61,89.93l0-.05,2.53-3.42a9.14,9.14,0,0,0-3.2-2.34l-1.28-.56s-5,6.85-5.09,6.94a3.36,3.36,0,0,0,2.84,5.26l.46,0,8.26-1,.16-1.38a9.15,9.15,0,0,0-.43-4Z"
       transform="translate(-25.24 -36.96)"
       id="path8" />
    <path
       class="cls-1"
       d="M44.16,80.57a16.2,16.2,0,0,0-4.46-2.89L33.61,75V75l3.89-1.69a9.13,9.13,0,0,0-1.6-3.63l-.83-1.12S27.23,72,27.12,72a3.3,3.3,0,0,0,.21,6l10.25,4.48a10.71,10.71,0,0,1,4.18,3.23,10.54,10.54,0,0,1,1.46,2.54,10.77,10.77,0,0,1,.72,5.24l-1.26,11s0,.49,0,.68a3.31,3.31,0,0,0,3.31,3.31,3.26,3.26,0,0,0,2.09-.76l6.81-5-.56-1.29a9.14,9.14,0,0,0-2.34-3.2l-3.4,2.52-.06,0,.75-6.6a16.27,16.27,0,0,0-.27-5.3c-.09-.38-.18-.74-.29-1.1a19.36,19.36,0,0,1-3.6-6.31C44.78,81.16,44.48,80.86,44.16,80.57Z"
       transform="translate(-25.24 -36.96)"
       id="path9" />
    <path
       class="cls-1"
       d="M91.17,83.56l-1.28.56a9.14,9.14,0,0,0-3.2,2.34l2.5,3.38,0,.08L85,89.44a9.13,9.13,0,0,0-.43,4l.16,1.38,8.25,1h.38A3.45,3.45,0,0,0,96,90.08Z"
       transform="translate(-25.24 -36.96)"
       id="path10" />
    <path
       class="cls-1"
       d="M99.32,71.83l-7.59-3.3-.83,1.12a9.13,9.13,0,0,0-1.6,3.63L93.2,75v0l-6.11,2.65a16.43,16.43,0,0,0-4.46,2.89l-.62.61a19.36,19.36,0,0,1-4,6.88c-.07.27-.15.54-.21.82a15.74,15.74,0,0,0-.27,5.3l.75,6.61,0,0-3.41-2.53a9,9,0,0,0-2.34,3.2L72,102.78s6.85,5,6.93,5.07a3.31,3.31,0,0,0,1.91.6,3.36,3.36,0,0,0,3.35-3.36,3.42,3.42,0,0,0,0-.46s-1.25-11-1.25-11a10.76,10.76,0,0,1,.71-5.24,10.58,10.58,0,0,1,5.64-5.77l10.14-4.41.14-.08a3.33,3.33,0,0,0-.17-6.25Z"
       transform="translate(-25.24 -36.96)"
       id="path11" />
    <path
       class="cls-1"
       d="M77.27,60.56a16.5,16.5,0,0,0,3.49.38c.6,0,1.22,0,1.82-.1l6.59-.76,0,.07-3.94,5.33a15.9,15.9,0,0,0-2.41,4.73c-.11.34-.17.68-.26,1a19.25,19.25,0,0,1,.39,3.9,20.08,20.08,0,0,1-.28,3.22,17.43,17.43,0,0,1,3.72-2.22l1-.45a10.15,10.15,0,0,1,.08-2.14,10.58,10.58,0,0,1,2-4.89l6.62-9a3.39,3.39,0,0,0,.7-2.22,3.29,3.29,0,0,0-3.53-3.18L82,55.54a9.82,9.82,0,0,1-1.21.07,10.52,10.52,0,0,1-5.91-1.78l-.92.67a17.25,17.25,0,0,1-4,2.23l0,0A19.59,19.59,0,0,1,76,60.19C76.43,60.32,76.84,60.46,77.27,60.56Z"
       transform="translate(-25.24 -36.96)"
       id="path12" />
    <path
       class="cls-2"
       d="M162,99.23h-7.88l-8.91-29.36-8.9,29.36h-7.88L115.52,50.85h8.4a1.85,1.85,0,0,1,1.8,1.41l7.13,29.09,8.45-29.18a1.81,1.81,0,0,1,1.75-1.32h4.31a1.83,1.83,0,0,1,1.77,1.33l8.45,29.17,7.2-29.1a1.84,1.84,0,0,1,1.79-1.4H175Z"
       transform="translate(-25.24 -36.96)"
       id="path13" />
    <path
       class="cls-2"
       d="M181.69,84.28c0,4.55,2.79,7.88,7.75,7.88A9.56,9.56,0,0,0,196.21,90a1.87,1.87,0,0,1,2.5.08l4.11,4c-3.6,3.6-7.06,5.57-13.45,5.57C181,99.63,173,95.83,173,81.49c0-11.55,6.26-18.07,15.43-18.07,9.85,0,15.42,7.2,15.42,16.92v2.09A1.85,1.85,0,0,1,202,84.28Zm12.64-9.86a6.59,6.59,0,0,0-11.82,0,9.71,9.71,0,0,0-.82,3.81h13.46A9.89,9.89,0,0,0,194.33,74.42Z"
       transform="translate(-25.24 -36.96)"
       id="path14" />
    <path
       class="cls-2"
       d="M232.94,99.17V50.85h-7a1.85,1.85,0,0,0-1.85,1.85V99.17Z"
       transform="translate(-25.24 -36.96)"
       id="path15" />
    <path
       class="cls-2"
       d="M217.62,99.17V50.85h-7a1.85,1.85,0,0,0-1.85,1.85V99.17Z"
       transform="translate(-25.24 -36.96)"
       id="path16" />
    <path
       class="cls-2"
       d="M254.83,99.63c-7.33,0-12.91-1.56-17.66-6.38l4.89-4.9a1.85,1.85,0,0,1,2.44-.15c2.9,2.23,6.56,3,10.47,3,5.57,0,8.56-2.11,8.56-6A5.38,5.38,0,0,0,262,81.15c-1-.88-2-1.36-4.28-1.7l-5.85-.81c-4.14-.61-7.2-1.91-9.37-4-2.31-2.31-3.47-5.44-3.47-9.52,0-8.62,6.39-14.67,16.85-14.67,6.66,0,11.49,1.63,15.63,5.64l-4.78,4.72a1.84,1.84,0,0,1-2.37.21c-2.8-2-6-2.35-8.75-2.35-5,0-7.47,2.79-7.47,6.12a4.65,4.65,0,0,0,1.42,3.46,8.35,8.35,0,0,0,4.49,1.9l5.7.82c4.42.61,7.21,1.83,9.25,3.74,2.58,2.44,3.73,6,3.73,10.26C272.77,94.33,265,99.63,254.83,99.63Z"
       transform="translate(-25.24 -36.96)"
       id="path17" />
    <path
       class="cls-2"
       d="M284.49,84.28c0,4.55,2.78,7.88,7.74,7.88A9.57,9.57,0,0,0,299,90a1.85,1.85,0,0,1,2.49.08l4.12,4c-3.6,3.6-7.07,5.57-13.45,5.57-8.36,0-16.38-3.8-16.38-18.14,0-11.55,6.25-18.07,15.42-18.07,9.86,0,15.43,7.2,15.43,16.92v2.09a1.85,1.85,0,0,1-1.85,1.85Zm12.64-9.86a6.6,6.6,0,0,0-11.83,0,9.89,9.89,0,0,0-.81,3.81h13.45A9.89,9.89,0,0,0,297.13,74.42Z"
       transform="translate(-25.24 -36.96)"
       id="path18" />
    <path
       class="cls-2"
       d="M331.29,99.23V77.82c0-4.82-3.06-6.45-5.85-6.45s-5.91,1.63-5.91,6.45V99.23H310.7V63.82h6.81A1.55,1.55,0,0,1,319,65.27l.37,1.82a12.09,12.09,0,0,1,8.83-3.67,11.49,11.49,0,0,1,8.36,3.12c2.85,2.86,3.6,6.19,3.6,10.06V99.23Z"
       transform="translate(-25.24 -36.96)"
       id="path19" />
    <path
       class="cls-2"
       d="M358.18,99.63c-5.57,0-10.6-.61-15.08-5.09L347.67,90a1.83,1.83,0,0,1,2.38-.2,13.61,13.61,0,0,0,8.27,2.32c3.06,0,6.25-1,6.25-3.67,0-1.77-.95-3-3.74-3.26l-5.57-.54c-6.39-.62-10.33-3.4-10.33-9.92,0-7.34,6.46-11.28,13.66-11.28,5.51,0,10.13,1,13.52,4.14l-4.32,4.38a1.82,1.82,0,0,1-2.22.31,14,14,0,0,0-7.11-1.56c-3.54,0-5,1.63-5,3.39,0,1.3.54,2.79,3.67,3.06l5.57.55c7,.68,10.53,4.41,10.53,10.39C373.2,95.9,366.54,99.63,358.18,99.63Z"
       transform="translate(-25.24 -36.96)"
       id="path20" />
    <path
       class="cls-2"
       d="M384.61,84.28c0,4.55,2.79,7.88,7.75,7.88A9.56,9.56,0,0,0,399.13,90a1.85,1.85,0,0,1,2.49.08l4.12,4c-3.6,3.6-7.07,5.57-13.45,5.57-8.36,0-16.38-3.8-16.38-18.14,0-11.55,6.25-18.07,15.43-18.07,9.85,0,15.42,7.2,15.42,16.92v2.09a1.85,1.85,0,0,1-1.85,1.85Zm12.64-9.86a6.6,6.6,0,0,0-11.83,0,9.89,9.89,0,0,0-.81,3.81h13.45A9.71,9.71,0,0,0,397.25,74.42Z"
       transform="translate(-25.24 -36.96)"
       id="path21" />
    <path
       class="cls-2"
       d="M248.37,121.27h-7V129h-2.68V111.3h2.68v7.59h7V111.3h2.69V129h-2.69Z"
       transform="translate(-25.24 -36.96)"
       id="path22" />
    <path
       class="cls-2"
       d="M256.43,111.3h11.32v2.53h-8.63v5.06h7.36v2.38h-7.36v5.21h8.63V129H256.43Z"
       transform="translate(-25.24 -36.96)"
       id="path23" />
    <path
       class="cls-2"
       d="M281.66,125.06h-6.72L273.58,129h-2.84l6.44-17.71h2.24L285.87,129H283Zm-.77-2.39-2.56-7.74h-.05l-2.56,7.74Z"
       transform="translate(-25.24 -36.96)"
       id="path24" />
    <path
       class="cls-2"
       d="M289.48,111.3h2.68v15.18h8.64V129H289.48Z"
       transform="translate(-25.24 -36.96)"
       id="path25" />
    <path
       class="cls-2"
       d="M305.58,113.68h-4.85V111.3h12.4v2.38h-4.86V129h-2.69Z"
       transform="translate(-25.24 -36.96)"
       id="path26" />
    <path
       class="cls-2"
       d="M326.51,121.27h-7V129H316.8V111.3h2.69v7.59h7V111.3h2.69V129h-2.69Z"
       transform="translate(-25.24 -36.96)"
       id="path27" />
    <path
       class="cls-2"
       d="M343.81,111.3h6.42a5.81,5.81,0,0,1,4,1.24,5.26,5.26,0,0,1,1.92,4.23,5.35,5.35,0,0,1-5.55,5.33H346.5V129h-2.69Zm2.69,8.26h4a2.81,2.81,0,0,0,3-2.86,2.61,2.61,0,0,0-1.15-2.37,3.08,3.08,0,0,0-1.91-.5H346.5Z"
       transform="translate(-25.24 -36.96)"
       id="path28" />
    <path
       class="cls-2"
       d="M358.75,111.3h2.68v15.18h8.64V129H358.75Z"
       transform="translate(-25.24 -36.96)"
       id="path29" />
    <path
       class="cls-2"
       d="M383.55,125.06h-6.72L375.47,129h-2.84l6.44-17.71h2.24L387.76,129h-2.84Zm-.77-2.39-2.56-7.74h-.05l-2.56,7.74Z"
       transform="translate(-25.24 -36.96)"
       id="path30" />
    <path
       class="cls-2"
       d="M390.89,111.3h2.54l8,12.59h.05V111.3h2.68V129h-2.53l-8-12.59h-.05V129h-2.69Z"
       transform="translate(-25.24 -36.96)"
       id="path31" />
  </g>
</svg>
